<svg xmlns="http://www.w3.org/2000/svg" width="16.012" height="16.016" viewBox="0 0 16.012 16.016"><defs><style>.a{fill:#fff;}</style></defs><g transform="translate(-0.054)"><g transform="translate(0.054 9.447)"><path class="a" d="M1.524,302h-1a.469.469,0,0,0-.469.469v5.63a.469.469,0,0,0,.469.469h1a1.409,1.409,0,0,0,1.408-1.408v-3.754A1.409,1.409,0,0,0,1.524,302Z" transform="translate(-0.054 -302)"/></g><g transform="translate(3.87 9.267)"><path class="a" d="M134.115,297.337a.859.859,0,0,0-.216-.235.93.93,0,0,0-1.267.094l-2.13,2.459-.066.075a1.385,1.385,0,0,1-1.032.451h-3.641a.469.469,0,0,1,0-.938h2.862a.941.941,0,0,0,.938-.938v-.009a.939.939,0,0,0-.938-.929h-1.7a1.292,1.292,0,0,1-.826-.31,3.289,3.289,0,0,0-4.045-.216v5.771a10.831,10.831,0,0,0,2.853.385h4.185a3.289,3.289,0,0,0,2.628-1.314l2.252-3A1.243,1.243,0,0,0,134.115,297.337Z" transform="translate(-122.056 -296.246)"/></g><g transform="translate(3.151 0)"><path class="a" d="M108.539.907a2.673,2.673,0,0,0-4.24.3c-.042.059-.082.118-.119.177-.037-.059-.077-.118-.119-.177a2.673,2.673,0,0,0-4.24-.3A3.128,3.128,0,0,0,99.054,3a3.781,3.781,0,0,0,1.051,2.5,22.707,22.707,0,0,0,2.563,2.372c.384.324.781.659,1.2,1.025a.469.469,0,0,0,.615,0c.422-.366.819-.7,1.2-1.025.668-.563,1.244-1.05,1.744-1.522A4.743,4.743,0,0,0,109.3,3,3.128,3.128,0,0,0,108.539.907Z" transform="translate(-99.054 0)"/></g></g></svg>